<?xml version="1.0" encoding="UTF-8" standalone="no"?>
<!-- Created with Inkscape (http://www.inkscape.org/) -->

<svg
   xmlns:dc="http://purl.org/dc/elements/1.1/"
   xmlns:cc="http://creativecommons.org/ns#"
   xmlns:rdf="http://www.w3.org/1999/02/22-rdf-syntax-ns#"
   xmlns:svg="http://www.w3.org/2000/svg"
   xmlns="http://www.w3.org/2000/svg"
   xmlns:sodipodi="http://sodipodi.sourceforge.net/DTD/sodipodi-0.dtd"
   xmlns:inkscape="http://www.inkscape.org/namespaces/inkscape"
   width="2190.3401"
   height="520"
   id="svg3209"
   version="1.1"
   inkscape:version="0.48.4 r9939"
   sodipodi:docname="Neues Dokument 3">
  <defs
     id="defs3211">
    <clipPath
       clipPathUnits="userSpaceOnUse"
       id="clipPath182">
      <path
         inkscape:connector-curvature="0"
         d="m 0,0 595.276,0 0,419.528 L 0,419.528 0,0 z"
         id="path184" />
    </clipPath>
  </defs>
  <sodipodi:namedview
     id="base"
     pagecolor="#ffffff"
     bordercolor="#666666"
     borderopacity="1.0"
     inkscape:pageopacity="0.0"
     inkscape:pageshadow="2"
     inkscape:zoom="0.70797507"
     inkscape:cx="1095.17"
     inkscape:cy="260"
     inkscape:document-units="px"
     inkscape:current-layer="layer1"
     showgrid="false"
     fit-margin-top="0"
     fit-margin-left="0"
     fit-margin-right="0"
     fit-margin-bottom="0"
     inkscape:window-width="1680"
     inkscape:window-height="990"
     inkscape:window-x="-4"
     inkscape:window-y="-4"
     inkscape:window-maximized="1" />
  <metadata
     id="metadata3214">
    <rdf:RDF>
      <cc:Work
         rdf:about="">
        <dc:format>image/svg+xml</dc:format>
        <dc:type
           rdf:resource="http://purl.org/dc/dcmitype/StillImage" />
        <dc:title></dc:title>
      </cc:Work>
    </rdf:RDF>
  </metadata>
  <g
     inkscape:label="Ebene 1"
     inkscape:groupmode="layer"
     id="layer1"
     transform="translate(30.649276,38.205598)">
    <g
       id="g170"
       transform="matrix(11.759172,0,0,-11.759172,269.70834,464.50948)">
      <path
         inkscape:connector-curvature="0"
         d="m 0,0 -3.652,0 -0.99,4.951 c -1.423,-2.971 -3.095,-5.57 -8.232,-5.57 -9.283,0 -12.626,8.479 -12.626,20.734 0,9.531 2.228,21.785 13.493,21.785 9.965,0 11.512,-9.345 11.945,-13.987 l -6.994,-1.3 c -0.681,4.58 -1.176,7.922 -4.89,7.922 -2.165,0 -3.156,-1.052 -3.836,-2.908 -0.929,-2.724 -0.991,-8.665 -0.991,-11.946 0,-9.902 1.3,-12.935 4.889,-12.935 2.414,0 4.457,1.052 4.519,8.169 l -5.137,0 0,6.87 L 0,21.785 0,0 z"
         style="fill:#e2007a;fill-opacity:1;fill-rule:nonzero;stroke:none"
         id="path172" />
    </g>
    <g
       id="g174"
       transform="matrix(11.759172,0,0,-11.759172,285.70905,-20.931443)">
      <path
         inkscape:connector-curvature="0"
         d="m 0,0 8.479,0 0,-33.67 10.46,0 0,-7.612 L 0,-41.282 0,0 z"
         style="fill:#e2007a;fill-opacity:1;fill-rule:nonzero;stroke:none"
         id="path176" />
    </g>
    <g
       transform="matrix(11.759172,0,0,-11.759172,-516.80977,2971.7779)"
       id="g178">
      <g
         id="g180"
         clip-path="url(#clipPath182)">
        <g
           id="g186"
           transform="translate(98.2917,228.8145)">
          <path
             inkscape:connector-curvature="0"
             d="m 0,0 2.228,11.388 c 0.495,2.538 0.742,4.828 0.99,6.561 0.186,-3.714 0.495,-5.261 0.867,-6.932 L 6.375,0 0,0 z m -0.619,25.686 -9.47,-41.282 7.613,0 1.609,8.912 8.17,0 1.671,-8.912 8.541,0 -9.346,41.282 -8.788,0 z"
             style="fill:#e2007a;fill-opacity:1;fill-rule:nonzero;stroke:none"
             id="path188" />
        </g>
        <g
           id="g190"
           transform="translate(116.4864,254.5)">
          <path
             inkscape:connector-curvature="0"
             d="m 0,0 11.635,0 3.157,-17.392 c 0.743,-3.837 1.052,-8.108 1.3,-11.822 0.309,4.519 1.238,10.46 1.733,12.689 L 21.353,0 l 11.388,0 0,-41.282 -8.108,0 0,23.519 c 0,2.661 0.062,4.394 0.433,12.502 -0.371,-2.661 -1.361,-9.965 -1.795,-12.131 l -5.013,-23.89 -5.323,0 -4.827,24.261 c -0.557,2.847 -1.176,7.861 -1.609,11.76 0.062,-3.218 0.247,-8.293 0.247,-11.512 l 0,-24.509 -6.746,0 L 0,0 z"
             style="fill:#e2007a;fill-opacity:1;fill-rule:nonzero;stroke:none"
             id="path192" />
        </g>
        <g
           id="g194"
           transform="translate(163.2928,247.7536)">
          <path
             inkscape:connector-curvature="0"
             d="m 0,0 c 1.609,0 2.538,-0.619 3.218,-2.661 0.806,-2.476 0.806,-8.294 0.806,-10.832 0,-0.557 0,-7.798 -0.496,-10.645 -0.371,-2.166 -1.052,-3.652 -3.342,-3.652 -2.104,0 -2.847,1.362 -3.28,3.033 -0.743,2.909 -0.743,6.932 -0.743,10.46 0,5.199 0.124,9.655 0.867,11.698 C -2.29,-0.743 -1.3,0 0,0 m 0.186,7.365 c -9.717,0 -12.997,-8.17 -12.997,-20.796 0,-6.622 0.804,-12.688 3.465,-17.02 0.496,-0.805 2.909,-4.704 9.346,-4.704 10.212,0 12.997,8.789 12.997,20.982 0,12.502 -2.846,21.538 -12.811,21.538"
             style="fill:#e2007a;fill-opacity:1;fill-rule:nonzero;stroke:none"
             id="path196" />
        </g>
        <g
           id="g198"
           transform="translate(186.2379,254.5)">
          <path
             inkscape:connector-curvature="0"
             d="m 0,0 0,-26.304 c 0,-5.137 0.433,-8.046 4.208,-8.046 4.024,0 4.085,3.651 4.085,8.479 l 0,25.871 7.179,0 0,-25.871 c 0,-7.303 -0.433,-16.03 -11.82,-16.03 -9.408,0 -12.132,4.766 -12.132,15.349 L -8.48,0 0,0 z"
             style="fill:#e2007a;fill-opacity:1;fill-rule:nonzero;stroke:none"
             id="path200" />
        </g>
        <g
           id="g202"
           transform="translate(211.3512,248.0013)">
          <path
             inkscape:connector-curvature="0"
             d="m 0,0 2.352,0 c 2.723,0 4.579,-1.424 4.579,-5.694 0,-3.899 -1.3,-6.066 -4.579,-6.066 L 0,-11.76 0,0 z m -8.294,-34.783 8.294,0 0,16.215 2.661,0 4.642,-16.215 8.913,0 -6.252,17.886 c 1.919,1.176 5.385,3.343 5.385,11.141 0,1.547 0,6.437 -3.838,10.027 -2.165,1.98 -4.704,2.228 -9.159,2.228 l -10.646,0 0,-41.282 z"
             style="fill:#e2007a;fill-opacity:1;fill-rule:nonzero;stroke:none"
             id="path204" />
        </g>
      </g>
    </g>
  </g>
</svg>
